<?xml version="1.0" standalone="no"?><!DOCTYPE svg PUBLIC "-//W3C//DTD SVG 1.1//EN" "http://www.w3.org/Graphics/SVG/1.1/DTD/svg11.dtd"><svg t="1679129047370" class="icon" viewBox="0 0 1024 1024" version="1.1" xmlns="http://www.w3.org/2000/svg" p-id="9429" xmlns:xlink="http://www.w3.org/1999/xlink" width="200" height="200"><path d="M102.4 0h819.2a102.4 102.4 0 0 1 102.4 102.4v819.2a102.4 102.4 0 0 1-102.4 102.4H102.4a102.4 102.4 0 0 1-102.4-102.4V102.4a102.4 102.4 0 0 1 102.4-102.4z m599.2192 196.9664C603.8784 153.088 486.6048 170.0352 408.064 248.5504c-71.936 71.9616-92.1856 176.4864-61.312 268.672l-119.1168 119.1168a122.1888 122.1888 0 1 0 172.8 172.8l119.1168-119.1168c92.1856 30.8736 196.7104 10.6496 268.672-61.312 78.5152-78.5152 95.4624-195.7888 51.584-293.5296l-155.4432 155.4688a48 48 0 0 1-67.8912 0l-70.3488-70.3488a48 48 0 0 1 0-67.8912l155.4688-155.4432z m-423.424 561.664c-19.0976-19.0976-19.5072-49.6384-0.896-68.224 18.5856-18.6112 49.152-18.2016 68.224 0.8704 19.072 19.0976 19.456 49.664 0.8704 68.224-18.5856 18.6112-49.152 18.2016-68.224-0.8704z" fill="#1296db" p-id="9430"></path></svg>